# xmcd
#
# Track frame offsets:
#	150
#	12752
#	26365
#	40278
#	55061
#	68075
#	80938
#	94087
#	107640
#	119526
#
# Disc length: 1794 seconds
#
# Revision: 1
# Processed by: cddbd v1.5.1PL0 Copyright (c) Steve Scherf et al.
# Submitted via: audiograbber 1.81.02
#
DISCID=7c07000a
DTITLE=Legendary Blues - Piano Blues
DYEAR=2002
DGENRE=Blues
TTITLE0=Peetie Wheatstraw - Gangster's Blues
TTITLE1=Amos Milburn - Down The Road Apiece
TTITLE2=Roosevelt Sykes - Give Me Your Change
TTITLE3=Memphis Slim - Lend My Your Love
TTITLE4=Walter Davis - Sweet Sixteen
TTITLE5=Champion Jack Dupree - Warehouse Man Blues
TTITLE6=Leroy Carr - New How Long How Long Blues
TTITLE7=Roosevelt Sykes - Dirty Mother For You
TTITLE8=Peetie Wheatstraw - Shack Bully Stomp
TTITLE9=Memphis Slim - Beer Drinking Woman
EXTD=
EXTT0=
EXTT1=
EXTT2=
EXTT3=
EXTT4=
EXTT5=
EXTT6=
EXTT7=
EXTT8=
EXTT9=
PLAYORDER=
